<svg id="Layer_1" data-name="Layer 1" xmlns="http://www.w3.org/2000/svg" viewBox="0 0 371.34 141.42"><defs><style>.cls-1{fill:#daa746;}</style></defs><title>logo-xbn</title><polygon class="cls-1" points="314.69 37.3 314.69 37.41 314.79 37.41 314.69 37.3"/><polygon class="cls-1" points="371.27 93.88 371.27 47.41 361.27 47.41 361.27 83.88 324.79 47.41 324.69 47.3 324.69 47.41 314.69 47.41 314.69 51.44 314.69 98.09 324.69 98.09 324.69 61.44 361.27 98.03 361.27 98.09 361.34 98.09 371.27 98.09 371.27 93.88"/><polygon class="cls-1" points="371.27 108.03 371.27 108.09 371.34 108.09 371.27 108.03"/><polygon class="cls-1" points="235.97 46.76 221.83 46.76 203.56 65.03 185.28 46.76 171.14 46.76 196.49 72.1 171.14 97.45 185.28 97.45 203.56 79.17 221.83 97.45 235.97 97.45 210.63 72.1 235.97 46.76"/><path class="cls-1" d="M286,47.34H256V98.11h40V82.85l-5.07-5.08L286,72.85V72.7l4.93-4.93L296,62.7V47.34Zm0,40.77H266V78.55l.79-.78h10l2.07,2.07L286,87l1.13,1.12Zm0-29.56-7.14,7.15-2.07,2.07h-10L266,67V57.34h21.21Z"/><rect class="cls-1" x="60.71" y="4.14" width="20" height="20" transform="translate(10.71 54.14) rotate(-45)"/><rect class="cls-1" x="60.71" y="117.28" width="20" height="20" transform="translate(-69.29 87.28) rotate(-45)"/><polygon class="cls-1" points="134.35 63.64 109.6 38.89 102.53 31.82 95.46 38.89 95.46 38.89 77.8 56.55 84.87 63.63 102.53 45.96 127.28 70.71 102.53 95.46 77.78 70.71 70.71 63.64 45.96 38.89 38.89 31.82 31.82 38.89 7.07 63.64 0 70.71 7.07 77.78 31.82 102.53 38.89 109.6 45.96 102.53 63.64 84.85 56.57 77.78 38.89 95.46 14.14 70.71 38.89 45.96 63.64 70.71 70.71 77.78 95.46 102.53 102.53 109.6 109.6 102.53 134.35 77.78 141.42 70.71 134.35 63.64"/></svg>