<svg id="Layer_1" data-name="Layer 1" xmlns="http://www.w3.org/2000/svg" viewBox="0 0 500 500"><defs><style>.cls-1{fill:#daa746;}</style></defs><title>logo</title><rect class="cls-1" x="214.64" y="14.64" width="70.71" height="70.71" transform="translate(37.87 191.42) rotate(-45)"/><rect class="cls-1" x="214.64" y="414.64" width="70.71" height="70.71" transform="translate(-244.97 308.58) rotate(-45)"/><polygon class="cls-1" points="475 225 387.5 137.5 362.5 112.5 337.5 137.5 337.5 137.5 275.05 199.95 300.05 224.95 362.5 162.5 450 250 362.5 337.5 275 250 250 225 162.5 137.5 137.5 112.5 112.5 137.5 25 225 0 250 25 275 112.5 362.5 137.5 387.5 162.5 362.5 225 300 200 275 137.5 337.5 50 250 137.5 162.5 225 250 250 275 337.5 362.5 362.5 387.5 387.5 362.5 475 275 500 250 475 225"/></svg>