<?xml version="1.0"?>
<svg xmlns="http://www.w3.org/2000/svg" xmlns:xlink="http://www.w3.org/1999/xlink" xmlns:svgjs="http://svgjs.com/svgjs" version="1.1" width="512" height="512" x="0" y="0" viewBox="0 0 512 512" style="enable-background:new 0 0 512 512" xml:space="preserve" class=""><g><path xmlns="http://www.w3.org/2000/svg" d="m10 109h180v294h-180z" fill="#ffffff" data-original="#ffffff" style="" class=""/><path xmlns="http://www.w3.org/2000/svg" d="m190 109h312v294h-312z" fill="#daa746" transform="matrix(-1 0 0 -1 692 512)" data-original="#66e0f7" style="" class=""/><path xmlns="http://www.w3.org/2000/svg" d="m229 234 83-77 4 27 119-35-12 43 40-10-20 37 20 6-30 46 24 28-72 53-5-30-41 22 1-42-70 45v-22h-40l26-63z" fill="#ffffff" data-original="#ffffff" style="" class=""/><path xmlns="http://www.w3.org/2000/svg" d="m509.07 101.93c-1.86-1.86-4.44-2.93-7.07-2.93h-492c-5.523 0-10 4.477-10 10v294c0 5.523 4.477 10 10 10h338c5.51 0 10-4.49 10-10s-4.49-10-10-10h-148v-274h292v274h-54c-5.51 0-10 4.49-10 10s4.49 10 10 10h64c2.63 0 5.21-1.07 7.07-2.93s2.93-4.44 2.93-7.07v-294c0-2.63-1.07-5.21-2.93-7.07zm-489.07 17.07h160v274h-160z" fill="#000000" data-original="#000000" style="" class=""/><circle xmlns="http://www.w3.org/2000/svg" cx="393" cy="403" r="10" fill="#000000" data-original="#000000" style="" class=""/><path xmlns="http://www.w3.org/2000/svg" d="m390.928 360.053 72-53c2.239-1.648 3.691-4.155 4.007-6.917.315-2.763-.533-5.532-2.343-7.644l-19.122-22.309 25.905-39.721c1.722-2.641 2.098-5.938 1.015-8.898s-3.499-5.237-6.518-6.143l-8.236-2.471 14.16-26.195c1.885-3.487 1.533-7.757-.897-10.887-2.43-3.131-6.482-4.532-10.325-3.57l-23.322 5.831 7.379-26.441c.977-3.501-.022-7.256-2.61-9.808-2.588-2.551-6.354-3.5-9.844-2.474l-107.971 31.756-2.315-15.628c-.544-3.671-3.076-6.739-6.577-7.969-3.501-1.232-7.396-.421-10.116 2.104l-83 77c-1.969 1.827-3.12 4.368-3.195 7.053s.934 5.287 2.798 7.22l22.459 23.291-23.504 56.953c-1.273 3.085-.923 6.602.933 9.376s4.974 4.438 8.311 4.438h30v12c0 3.658 1.998 7.024 5.208 8.777 3.211 1.752 7.123 1.613 10.2-.366l54.146-34.809-.551 23.159c-.085 3.559 1.729 6.894 4.761 8.758 3.032 1.863 6.827 1.976 9.964.292l28.703-15.401 2.706 16.234c.571 3.429 2.882 6.314 6.103 7.622 1.213.492 2.49.734 3.76.734 2.1 0 4.183-.662 5.928-1.947zm-147.653-125.656 6.259-5.806c1.763 1.559 4.074 2.513 6.613 2.513h4.174v20.971zm94.871 35.886c0 5.21-4.117 9.448-9.177 9.448s-9.177-4.238-9.177-9.448v-31.103c0-5.21 4.117-9.449 9.177-9.449s9.177 4.239 9.177 9.449zm41.854 41.717c-1.627 0-3.253.397-4.728 1.188l-25.866 13.879.591-24.83c.077-3.208-1.392-6.22-3.885-8.147 7.287-5.359 12.035-14.033 12.035-23.808v-31.102c0-16.238-13.089-29.449-29.177-29.449s-29.177 13.21-29.177 29.449v31.103c0 15.015 11.195 27.433 25.601 29.219l-45.394 29.181v-3.683c0-5.523-4.477-10-10-10h-25.055l15.375-37.256v10.615c0 5.523 4.477 10 10 10s10-4.477 10-10v-67.255c0-5.523-4.477-10-10-10h-1.937l36.506-33.867 1.219 8.228c.424 2.863 2.067 5.401 4.506 6.96 2.437 1.558 5.431 1.983 8.208 1.168l101.699-29.912-7.152 25.63c-.958 3.43-.018 7.11 2.465 9.663 2.483 2.552 6.136 3.59 9.592 2.727l17.989-4.498-9.211 17.041c-1.43 2.646-1.594 5.795-.445 8.575 1.148 2.78 3.487 4.895 6.368 5.759l7.194 2.158-10.82 16.59v-8.146c0-16.238-13.089-29.449-29.177-29.449s-29.177 13.21-29.177 29.449v31.103c0 16.238 13.089 29.448 29.177 29.448 10.565 0 19.835-5.697 24.956-14.206l10.119 11.806-50.212 36.961-2.323-13.937c-.53-3.18-2.561-5.91-5.455-7.332-1.392-.682-2.901-1.023-4.409-1.023zm36.5-72.82v31.103c0 5.21-4.117 9.448-9.177 9.448s-9.177-4.238-9.177-9.448v-31.103c0-5.21 4.117-9.449 9.177-9.449s9.177 4.239 9.177 9.449z" fill="#000000" data-original="#000000" style="" class=""/><circle xmlns="http://www.w3.org/2000/svg" cx="100" cy="349" r="10" fill="#000000" data-original="#000000" style="" class=""/><circle xmlns="http://www.w3.org/2000/svg" cx="55" cy="349" r="10" fill="#000000" data-original="#000000" style="" class=""/><circle xmlns="http://www.w3.org/2000/svg" cx="145" cy="349" r="10" fill="#000000" data-original="#000000" style="" class=""/><path xmlns="http://www.w3.org/2000/svg" d="m77 299h-27c-5.51 0-10 4.49-10 10s4.49 10 10 10h27c5.51 0 10-4.49 10-10s-4.49-10-10-10z" fill="#000000" data-original="#000000" style="" class=""/><path xmlns="http://www.w3.org/2000/svg" d="m150 299h-28c-5.51 0-10 4.49-10 10s4.49 10 10 10h28c5.51 0 10-4.49 10-10s-4.49-10-10-10z" fill="#000000" data-original="#000000" style="" class=""/><path xmlns="http://www.w3.org/2000/svg" d="m150 259h-28c-5.51 0-10 4.49-10 10s4.49 10 10 10h28c5.51 0 10-4.49 10-10s-4.49-10-10-10z" fill="#000000" data-original="#000000" style="" class=""/><path xmlns="http://www.w3.org/2000/svg" d="m77 259h-27c-5.51 0-10 4.49-10 10s4.49 10 10 10h27c5.51 0 10-4.49 10-10s-4.49-10-10-10z" fill="#000000" data-original="#000000" style="" class=""/><path xmlns="http://www.w3.org/2000/svg" d="m150 219h-100c-5.523 0-10 4.477-10 10s4.477 10 10 10h100c5.523 0 10-4.477 10-10s-4.477-10-10-10z" fill="#000000" data-original="#000000" style="" class=""/><circle xmlns="http://www.w3.org/2000/svg" cx="150" cy="189" r="10" fill="#000000" data-original="#000000" style="" class=""/><path xmlns="http://www.w3.org/2000/svg" d="m50 199h55c5.51 0 10-4.49 10-10s-4.49-10-10-10h-55c-5.51 0-10 4.49-10 10s4.49 10 10 10z" fill="#000000" data-original="#000000" style="" class=""/><path xmlns="http://www.w3.org/2000/svg" d="m70 159h60c5.523 0 10-4.477 10-10s-4.477-10-10-10h-60c-5.523 0-10 4.477-10 10s4.477 10 10 10z" fill="#000000" data-original="#000000" style="" class=""/></g></svg>
